Coordinates
version=1
nRows=20
nColumns=38
inDegrees=no

Units are S.I. units (second, meters, Newtons, ...)
If the header above contains a line with 'inDegrees', this indicates whether rotational values are in degrees (yes) or radians (no).

endheader
time	pelvis_tilt	pelvis_list	pelvis_rotation	pelvis_tx	pelvis_ty	pelvis_tz	hip_flexion_r	hip_adduction_r	hip_rotation_r	knee_angle_r	ankle_angle_r	subtalar_angle_r	mtp_angle_r	hip_flexion_l	hip_adduction_l	hip_rotation_l	knee_angle_l	ankle_angle_l	subtalar_angle_l	mtp_angle_l	lumbar_extension	lumbar_bending	lumbar_rotation	arm_flex_r	arm_add_r	arm_rot_r	elbow_flex_r	pro_sup_r	wrist_flex_r	wrist_dev_r	arm_flex_l	arm_add_l	arm_rot_l	elbow_flex_l	pro_sup_l	wrist_flex_l	wrist_dev_l
6.66	0.42578	1.42144	-1.98146	0.749304	-0.431215	0.935575	-0.0916619	-0.133769	-0.287351	0.27795	0.181295	0	0	-0.206683	0.095261	-0.149506	0	0.00460529	0	0	-0.156997	-0.0569998	-0.119404	-0.0255814	-0.262267	0.537067	0.605725	1.46053	0	0	-0.00406639	-0.382496	0.357189	0.7066	1.46973	0	0
6.67	0.42308	1.42162	-1.98119	0.749375	-0.431177	0.935549	-0.0904917	-0.133993	-0.284818	0.278948	0.181133	0	0	-0.206671	0.0956063	-0.151633	0	0.00463415	0	0	-0.157401	-0.0568109	-0.117413	-0.0262256	-0.262215	0.540855	0.602497	1.46156	0	0	-0.00684886	-0.379037	0.360176	0.700892	1.47183	0	0
6.68	0.420898	1.42175	-1.98112	0.749467	-0.431173	0.935522	-0.0895696	-0.134239	-0.282953	0.279858	0.18111	0	0	-0.206749	0.0959956	-0.153574	0	0.00475322	0	0	-0.157618	-0.0567355	-0.115886	-0.0268391	-0.262019	0.544615	0.598932	1.462	0	0	-0.0100761	-0.375572	0.363093	0.695029	1.47341	0	0
6.69	0.418195	1.42151	-1.97943	0.749563	-0.431264	0.935533	-0.0898255	-0.134283	-0.282436	0.27989	0.181063	0	0	-0.207325	0.0961355	-0.154487	0	0.00506905	0	0	-0.158115	-0.0568175	-0.115054	-0.0279987	-0.262272	0.551496	0.596408	1.44818	0	0	-0.0136757	-0.374081	0.372478	0.691942	1.45189	0	0
6.7	0.415547	1.42167	-1.97784	0.749673	-0.431363	0.93553	-0.089744	-0.134184	-0.281614	0.279655	0.180535	0	0	-0.207571	0.0961394	-0.15548	0	0.00519289	0	0	-0.158214	-0.0566172	-0.114107	-0.0293354	-0.261741	0.55399	0.592195	1.45337	0	0	-0.0172141	-0.370347	0.374197	0.685482	1.45858	0	0
6.71	0.413936	1.42172	-1.97678	0.749778	-0.431493	0.935508	-0.0900817	-0.134102	-0.281353	0.279018	0.180179	0	0	-0.207928	0.0961938	-0.155866	0	0.00495287	0	0	-0.158301	-0.0566354	-0.113727	-0.0305873	-0.261153	0.556981	0.587903	1.45766	0	0	-0.0211211	-0.366751	0.375641	0.679223	1.46475	0	0
6.72	0.412846	1.42147	-1.97621	0.749882	-0.431597	0.935494	-0.0905693	-0.134239	-0.281198	0.278639	0.180184	0	0	-0.208545	0.0964924	-0.156579	0	0.00459998	0	0	-0.158694	-0.056816	-0.113471	-0.0318235	-0.260618	0.560011	0.58379	1.46147	0	0	-0.0252136	-0.363239	0.377276	0.673041	1.47056	0	0
6.73	0.411778	1.42114	-1.97489	0.749998	-0.431801	0.935501	-0.0915692	-0.134264	-0.281885	0.278187	0.180141	0	0	-0.209371	0.096597	-0.156787	0	0.00443906	0	0	-0.158958	-0.0571134	-0.11391	-0.0334758	-0.259805	0.562265	0.579605	1.46512	0	0	-0.0297775	-0.360079	0.379191	0.667262	1.4761	0	0
6.74	0.409869	1.42079	-1.97275	0.750148	-0.432026	0.935531	-0.0928524	-0.134062	-0.281778	0.277324	0.179929	0	0	-0.210278	0.0966219	-0.157033	0	0.00445572	0	0	-0.159196	-0.0572095	-0.114447	-0.0351137	-0.259007	0.564028	0.575259	1.4687	0	0	-0.0347879	-0.356611	0.380734	0.661626	1.48095	0	0
6.75	0.407709	1.42057	-1.9707	0.75029	-0.432154	0.935559	-0.0937415	-0.133835	-0.280997	0.276538	0.179175	0	0	-0.210956	0.0966583	-0.157535	0	0.00452823	0	0	-0.159524	-0.0571601	-0.114806	-0.0363133	-0.25823	0.565789	0.570789	1.47129	0	0	-0.0398082	-0.352997	0.382167	0.656082	1.48471	0	0
6.76	0.407881	1.42064	-1.9713	0.750398	-0.432209	0.935529	-0.0934997	-0.134125	-0.280593	0.276721	0.17853	0	0	-0.211099	0.0969825	-0.15813	0	0.00418808	0	0	-0.159612	-0.0573402	-0.114747	-0.0374603	-0.257608	0.567203	0.566737	1.47381	0	0	-0.0445258	-0.349417	0.384363	0.650408	1.48778	0	0
6.77	0.410363	1.42105	-1.97458	0.750492	-0.432221	0.935456	-0.0922352	-0.13482	-0.280171	0.277684	0.178343	0	0	-0.21067	0.0976093	-0.158995	0	0.00390004	0	0	-0.159269	-0.0577588	-0.114265	-0.0385223	-0.25707	0.568343	0.562565	1.47644	0	0	-0.0489859	-0.345871	0.387308	0.644495	1.49075	0	0
6.78	0.411385	1.42133	-1.97607	0.750615	-0.43224	0.935409	-0.0914068	-0.135197	-0.279669	0.278378	0.177812	0	0	-0.210416	0.0980133	-0.159657	0	0.00381783	0	0	-0.159186	-0.0579488	-0.114175	-0.039591	-0.256319	0.568868	0.558045	1.47782	0	0	-0.0533517	-0.342441	0.390832	0.638581	1.49362	0	0
6.79	0.410184	1.4217	-1.97519	0.750746	-0.43225	0.93538	-0.0907773	-0.135096	-0.278587	0.278733	0.177016	0	0	-0.210199	0.0980222	-0.160278	0	0.0039196	0	0	-0.159191	-0.0577517	-0.114328	-0.0406115	-0.255413	0.568389	0.553638	1.47893	0	0	-0.0576903	-0.338986	0.394455	0.632762	1.49649	0	0
6.8	0.409955	1.42197	-1.97494	0.750886	-0.432287	0.935344	-0.090368	-0.135106	-0.277882	0.278988	0.176392	0	0	-0.210056	0.0981284	-0.160548	0	0.00368975	0	0	-0.159257	-0.0577828	-0.114786	-0.0416398	-0.25439	0.567251	0.549474	1.48034	0	0	-0.0620556	-0.335678	0.398064	0.627223	1.49952	0	0
6.81	0.41189	1.42215	-1.97653	0.751013	-0.432341	0.935286	-0.0897474	-0.135579	-0.278134	0.279872	0.176104	0	0	-0.209837	0.0985036	-0.160496	0	0.00352497	0	0	-0.159228	-0.0581873	-0.11552	-0.0427306	-0.253223	0.56638	0.545135	1.48075	0	0	-0.066282	-0.332701	0.402231	0.621776	1.5034	0	0
6.82	0.414839	1.42226	-1.97886	0.751148	-0.432407	0.935225	-0.0891709	-0.136255	-0.279038	0.280865	0.175987	0	0	-0.209608	0.0989897	-0.160209	0	0.00353551	0	0	-0.159156	-0.0587445	-0.116598	-0.0436252	-0.252141	0.565837	0.540942	1.48041	0	0	-0.0707238	-0.330038	0.406874	0.617112	1.50725	0	0
6.83	0.417535	1.42233	-1.98111	0.751296	-0.432438	0.93518	-0.0886083	-0.136888	-0.279546	0.281736	0.175775	0	0	-0.209389	0.0995007	-0.160051	0	0.00363401	0	0	-0.159169	-0.0592453	-0.117482	-0.0442888	-0.251177	0.564935	0.537263	1.47985	0	0	-0.0750025	-0.327603	0.412024	0.613081	1.51104	0	0
6.84	0.43909	1.42611	-2.00241	0.75145	-0.43245	0.934566	-0.0803213	-0.139926	-0.283198	0.288965	0.18118	0	0	-0.203904	0.101292	-0.16318	0	0.00694301	0	0	-0.152417	-0.0617453	-0.114329	-0.0464417	-0.264013	0.638784	0.556801	1.16049	0	0	-0.0716986	-0.35587	0.559835	0.641785	1.18717	0	0
6.85	0.419954	1.4223	-1.98232	0.751589	-0.43249	0.935153	-0.088382	-0.137567	-0.280733	0.282507	0.175069	0	0	-0.209329	0.0999795	-0.159356	0	0.00347028	0	0	-0.159647	-0.0598597	-0.119354	-0.0455632	-0.249567	0.563001	0.530508	1.4767	0	0	-0.0836701	-0.323861	0.425005	0.60762	1.51857	0	0
